# xmcd
#
# Track frame offsets: 
#        182
#        15915
#        33392
#        50810
#        70280
#        85312
#        103500
#        122490
#        133335
#        148527
#        167755
#        184240
#        197667
#        214697
#        230547
#
# Disc length: 3295 seconds
#
# Revision: 5
# Processed by: cddbd v1.5.2PL0 Copyright (c) Steve Scherf et al.
# Submitted via: ExactAudioCopy v1.0b1
#
DISCID=d50cdd0f
DTITLE=John Lee Hooker With The Groundhogs - Hooker and The Hogs
DYEAR=1996
DGENRE=Blues
TTITLE0=John Lee Hooker - Mai Lee
TTITLE1=John Lee Hooker - I´m Losing You
TTITLE2=John Lee Hooker - Little Girl Go Back To School
TTITLE3=John Lee Hooker - Little Dreamer
TTITLE4=John Lee Hooker - Don´t Be Messin´ With My Bread
TTITLE5=John Lee Hooker - Bad Luck And Trouble
TTITLE6=John Lee Hooker - Waterfront
TTITLE7=John Lee Hooker - No One Pleases Me But You
TTITLE8=John Lee Hooker - It´s Rainin´ Here
TTITLE9=John Lee Hooker - It´s A Crazy Mixed Up World
TTITLE10=John Lee Hooker - Seven Days And Seven Nights
TTITLE11=John Lee Hooker - Wandering Blues
TTITLE12=John Lee Hooker - Goin´ Mad Blues
TTITLE13=John Lee Hooker - Black Man Blues
TTITLE14=John Lee Hooker - Helpless Blues
EXTD=
EXTT0=
EXTT1=
EXTT2=
EXTT3=
EXTT4=
EXTT5=
EXTT6=
EXTT7=
EXTT8=
EXTT9=
EXTT10=
EXTT11=
EXTT12=
EXTT13=
EXTT14=
PLAYORDER=
